<?xml version="1.0"?>
<svg xmlns="http://www.w3.org/2000/svg" xmlns:xlink="http://www.w3.org/1999/xlink" version="1.1" viewBox="0 0 224 224" width="480px" height="480px"><g fill="none" fill-rule="nonzero" stroke="none" stroke-width="1" stroke-linecap="butt" stroke-linejoin="miter" stroke-miterlimit="10" stroke-dasharray="" stroke-dashoffset="0" font-family="none" font-weight="none" font-size="none" text-anchor="none" style="mix-blend-mode: normal"><path d="M0,224v-224h224v224z" fill="none"/><g fill="#3498db"><path d="M112,9.33333c-43.16667,0 -78.83225,32.72267 -83.48958,74.66667h-19.17708v56h11.19271c8.69867,43.11067 46.65529,74.66667 91.47396,74.66667c44.81867,0 82.76596,-31.556 91.47396,-74.66667h11.19271v-56h-19.17709c-4.65732,-41.944 -40.32291,-74.66667 -83.48958,-74.66667zM112,28c36.02667,0 65.33333,29.30667 65.33333,65.33333v9.33333h18.66667v18.66667h-8.85938l-0.92968,8.3125c-4.18133,37.828 -36.08427,66.35417 -74.21094,66.35417c-38.12667,0 -70.0296,-28.52617 -74.21094,-66.35417l-0.91146,-8.3125h-8.8776v-18.66667h18.66667v-9.33333c0,-36.02667 29.30667,-65.33333 65.33333,-65.33333zM46.66667,102.66667v18.66667h18.66667v37.33333h28v-28h37.33333v28h28v-37.33333h18.66667v-18.66667h-28v18.66667h-18.66667v-18.66667h-37.33333v18.66667h-18.66667v-18.66667zM65.33333,74.66667c0,10.31333 8.35333,18.66667 18.66667,18.66667c10.31333,0 18.66667,-8.35333 18.66667,-18.66667zM121.33333,74.66667c0,10.31333 8.35333,18.66667 18.66667,18.66667c10.31333,0 18.66667,-8.35333 18.66667,-18.66667z"/></g></g></svg>
